<svg width="1024" height="1024" viewBox="0 0 1024 1024" fill="none" xmlns="http://www.w3.org/2000/svg">
<g clip-path="url(#clip0_74_194)">
<g clip-path="url(#clip1_74_194)">
<rect width="2936" height="1024" transform="translate(-956)" fill="url(#paint0_linear_74_194)"/>
<g filter="url(#filter0_dg_74_194)">
<path d="M191.328 347.173C189.598 344.704 190.254 341.261 192.793 339.483C192.793 339.483 250.957 299.517 285.782 275.654L285.852 275.605C285.876 275.588 285.899 275.572 285.922 275.555L342.636 235.844C342.66 235.828 342.683 235.811 342.706 235.795L342.777 235.746C376.04 211.934 431.803 172.126 431.803 172.126C434.341 170.349 437.801 170.91 439.531 173.38L445.793 182.324C447.523 184.794 446.867 188.237 444.328 190.014L356.538 251.486C355.015 252.552 354.621 254.618 355.659 256.1L362.197 265.437C363.234 266.919 365.31 267.255 366.833 266.189L454.624 204.717C457.162 202.94 460.622 203.501 462.351 205.971L465.483 210.443C467.212 212.913 466.556 216.356 464.018 218.134L376.227 279.605C374.704 280.672 374.311 282.737 375.348 284.219L380.359 291.375C381.396 292.857 383.472 293.193 384.995 292.127L472.786 230.655C475.324 228.878 478.784 229.439 480.513 231.909L483.645 236.381C485.374 238.851 484.718 242.294 482.18 244.072L394.389 305.543C392.866 306.609 392.473 308.675 393.51 310.157L398.521 317.313C399.558 318.794 401.634 319.131 403.157 318.065L490.947 256.593C493.486 254.816 496.946 255.377 498.675 257.847L501.807 262.319C503.536 264.789 502.88 268.232 500.342 270.009L412.551 331.481C411.028 332.547 410.635 334.613 411.672 336.095L416.682 343.25C417.72 344.732 419.796 345.069 421.319 344.003L509.109 282.531C511.648 280.754 515.108 281.315 516.837 283.785L519.969 288.257C521.698 290.727 521.042 294.17 518.504 295.947L430.713 357.419C429.19 358.485 428.797 360.551 429.834 362.033L431.856 364.92C432.772 366.229 434.26 367.021 435.858 367.051L459.91 367.502C460.968 367.522 462.005 367.206 462.872 366.599L533.397 317.217C535.935 315.439 538.631 314.91 540.361 317.38L578.563 371.939C579.255 372.927 578.993 374.304 577.977 375.015L568.785 381.452C567.262 382.518 565.186 382.182 564.148 380.7L534.745 338.708C534.112 337.803 532.865 337.584 531.96 338.217L523.286 344.291C522.381 344.924 522.161 346.171 522.795 347.076L547.009 381.658C547.949 383 546.965 384.841 545.327 384.805L532.198 384.515C531.561 384.501 530.969 384.185 530.603 383.663L510.844 355.444C510.211 354.539 508.963 354.319 508.059 354.953L499.385 361.026C498.48 361.66 498.26 362.907 498.894 363.812L510.831 380.86C511.771 382.202 510.786 384.043 509.148 384.007L496.019 383.717C495.382 383.703 494.79 383.386 494.425 382.864L486.943 372.18C486.31 371.275 485.062 371.055 484.158 371.688L470.932 380.949C469.266 382.116 467.323 382.82 465.31 382.986L440.564 382.493C438.552 382.659 436.608 383.363 434.942 384.53L429.876 388.077L400.258 408.816L394.652 412.742C392.624 414.161 391.11 416.194 390.345 418.522L384.173 437.308C383.408 439.636 381.894 441.669 379.866 443.088C378.039 444.368 377.595 446.886 378.875 448.713L385.919 458.774C386.285 459.295 386.38 459.96 386.175 460.563L381.957 473C381.43 474.552 379.364 474.847 378.424 473.505L365.755 455.411C365.121 454.506 363.874 454.286 362.969 454.92L354.296 460.993C353.391 461.627 353.171 462.874 353.804 463.779L374.296 493.044C374.661 493.565 374.756 494.23 374.551 494.833L370.333 507.27C369.807 508.822 367.741 509.117 366.801 507.775L341.854 472.147C341.22 471.242 339.973 471.022 339.068 471.656L330.395 477.729C329.49 478.363 329.27 479.61 329.903 480.515L360.07 523.597C361.107 525.079 360.714 527.145 359.191 528.211L349.998 534.648C348.983 535.359 347.599 535.134 346.907 534.146L308.704 479.587C306.975 477.118 307.631 473.674 310.169 471.897L367.166 431.988C367.96 431.431 368.576 430.656 368.937 429.756L377.45 408.567C378.079 407 377.875 405.22 376.906 403.836L374.678 400.654C373.64 399.172 371.564 398.835 370.041 399.902L342.923 418.89C340.384 420.668 336.924 420.106 335.195 417.637L332.064 413.165C330.334 410.695 330.99 407.252 333.529 405.474L360.647 386.486C362.17 385.419 362.564 383.353 361.526 381.871L356.516 374.716C355.478 373.234 353.402 372.897 351.879 373.964L314.189 400.355C311.651 402.132 310.995 405.575 312.724 408.045L326.502 427.722C328.232 430.192 328.955 432.67 326.416 434.447L319.981 438.953C317.443 440.73 316.761 440.223 315.032 437.753L289.981 401.977C288.251 399.507 288.008 398.693 290.546 396.916L342.485 360.548C344.008 359.481 344.402 357.415 343.364 355.933L338.354 348.778C337.316 347.296 335.241 346.959 333.717 348.026L259.716 399.842C257.178 401.62 253.718 401.058 251.988 398.589L248.857 394.116C247.128 391.647 247.784 388.203 250.322 386.426L324.323 334.61C325.846 333.543 326.24 331.477 325.202 329.995L320.192 322.84C319.155 321.358 317.079 321.022 315.556 322.088L241.554 373.904C239.016 375.682 235.556 375.12 233.827 372.651L230.695 368.179C228.966 365.709 229.622 362.266 232.16 360.488L306.161 308.672C307.685 307.605 308.078 305.539 307.04 304.058L300.503 294.721C299.465 293.239 297.389 292.902 295.866 293.969L205.318 357.371C202.78 359.149 199.32 358.587 197.59 356.118L191.328 347.173Z" fill="black" shape-rendering="crispEdges"/>
<path d="M191.328 347.173C189.598 344.704 190.254 341.261 192.793 339.483C192.793 339.483 250.957 299.517 285.782 275.654L285.852 275.605C285.876 275.588 285.899 275.572 285.922 275.555L342.636 235.844C342.66 235.828 342.683 235.811 342.706 235.795L342.777 235.746C376.04 211.934 431.803 172.126 431.803 172.126C434.341 170.349 437.801 170.91 439.531 173.38L445.793 182.324C447.523 184.794 446.867 188.237 444.328 190.014L356.538 251.486C355.015 252.552 354.621 254.618 355.659 256.1L362.197 265.437C363.234 266.919 365.31 267.255 366.833 266.189L454.624 204.717C457.162 202.94 460.622 203.501 462.351 205.971L465.483 210.443C467.212 212.913 466.556 216.356 464.018 218.134L376.227 279.605C374.704 280.672 374.311 282.737 375.348 284.219L380.359 291.375C381.396 292.857 383.472 293.193 384.995 292.127L472.786 230.655C475.324 228.878 478.784 229.439 480.513 231.909L483.645 236.381C485.374 238.851 484.718 242.294 482.18 244.072L394.389 305.543C392.866 306.609 392.473 308.675 393.51 310.157L398.521 317.313C399.558 318.794 401.634 319.131 403.157 318.065L490.947 256.593C493.486 254.816 496.946 255.377 498.675 257.847L501.807 262.319C503.536 264.789 502.88 268.232 500.342 270.009L412.551 331.481C411.028 332.547 410.635 334.613 411.672 336.095L416.682 343.25C417.72 344.732 419.796 345.069 421.319 344.003L509.109 282.531C511.648 280.754 515.108 281.315 516.837 283.785L519.969 288.257C521.698 290.727 521.042 294.17 518.504 295.947L430.713 357.419C429.19 358.485 428.797 360.551 429.834 362.033L431.856 364.92C432.772 366.229 434.26 367.021 435.858 367.051L459.91 367.502C460.968 367.522 462.005 367.206 462.872 366.599L533.397 317.217C535.935 315.439 538.631 314.91 540.361 317.38L578.563 371.939C579.255 372.927 578.993 374.304 577.977 375.015L568.785 381.452C567.262 382.518 565.186 382.182 564.148 380.7L534.745 338.708C534.112 337.803 532.865 337.584 531.96 338.217L523.286 344.291C522.381 344.924 522.161 346.171 522.795 347.076L547.009 381.658C547.949 383 546.965 384.841 545.327 384.805L532.198 384.515C531.561 384.501 530.969 384.185 530.603 383.663L510.844 355.444C510.211 354.539 508.963 354.319 508.059 354.953L499.385 361.026C498.48 361.66 498.26 362.907 498.894 363.812L510.831 380.86C511.771 382.202 510.786 384.043 509.148 384.007L496.019 383.717C495.382 383.703 494.79 383.386 494.425 382.864L486.943 372.18C486.31 371.275 485.062 371.055 484.158 371.688L470.932 380.949C469.266 382.116 467.323 382.82 465.31 382.986L440.564 382.493C438.552 382.659 436.608 383.363 434.942 384.53L429.876 388.077L400.258 408.816L394.652 412.742C392.624 414.161 391.11 416.194 390.345 418.522L384.173 437.308C383.408 439.636 381.894 441.669 379.866 443.088C378.039 444.368 377.595 446.886 378.875 448.713L385.919 458.774C386.285 459.295 386.38 459.96 386.175 460.563L381.957 473C381.43 474.552 379.364 474.847 378.424 473.505L365.755 455.411C365.121 454.506 363.874 454.286 362.969 454.92L354.296 460.993C353.391 461.627 353.171 462.874 353.804 463.779L374.296 493.044C374.661 493.565 374.756 494.23 374.551 494.833L370.333 507.27C369.807 508.822 367.741 509.117 366.801 507.775L341.854 472.147C341.22 471.242 339.973 471.022 339.068 471.656L330.395 477.729C329.49 478.363 329.27 479.61 329.903 480.515L360.07 523.597C361.107 525.079 360.714 527.145 359.191 528.211L349.998 534.648C348.983 535.359 347.599 535.134 346.907 534.146L308.704 479.587C306.975 477.118 307.631 473.674 310.169 471.897L367.166 431.988C367.96 431.431 368.576 430.656 368.937 429.756L377.45 408.567C378.079 407 377.875 405.22 376.906 403.836L374.678 400.654C373.64 399.172 371.564 398.835 370.041 399.902L342.923 418.89C340.384 420.668 336.924 420.106 335.195 417.637L332.064 413.165C330.334 410.695 330.99 407.252 333.529 405.474L360.647 386.486C362.17 385.419 362.564 383.353 361.526 381.871L356.516 374.716C355.478 373.234 353.402 372.897 351.879 373.964L314.189 400.355C311.651 402.132 310.995 405.575 312.724 408.045L326.502 427.722C328.232 430.192 328.955 432.67 326.416 434.447L319.981 438.953C317.443 440.73 316.761 440.223 315.032 437.753L289.981 401.977C288.251 399.507 288.008 398.693 290.546 396.916L342.485 360.548C344.008 359.481 344.402 357.415 343.364 355.933L338.354 348.778C337.316 347.296 335.241 346.959 333.717 348.026L259.716 399.842C257.178 401.62 253.718 401.058 251.988 398.589L248.857 394.116C247.128 391.647 247.784 388.203 250.322 386.426L324.323 334.61C325.846 333.543 326.24 331.477 325.202 329.995L320.192 322.84C319.155 321.358 317.079 321.022 315.556 322.088L241.554 373.904C239.016 375.682 235.556 375.12 233.827 372.651L230.695 368.179C228.966 365.709 229.622 362.266 232.16 360.488L306.161 308.672C307.685 307.605 308.078 305.539 307.04 304.058L300.503 294.721C299.465 293.239 297.389 292.902 295.866 293.969L205.318 357.371C202.78 359.149 199.32 358.587 197.59 356.118L191.328 347.173Z" fill="url(#paint1_linear_74_194)" fill-opacity="0.09" shape-rendering="crispEdges"/>
<path d="M268.189 242.703C267.152 241.221 267.545 239.155 269.068 238.089L313.193 207.192C314.716 206.126 316.792 206.462 317.83 207.944L336.618 234.776L336.666 234.845C338.003 236.755 340.669 237.194 342.636 235.844L285.922 275.555C287.864 274.169 288.363 271.513 287.025 269.603L286.977 269.535L268.189 242.703Z" fill="black" shape-rendering="crispEdges"/>
<path d="M268.189 242.703C267.152 241.221 267.545 239.155 269.068 238.089L313.193 207.192C314.716 206.126 316.792 206.462 317.83 207.944L336.618 234.776L336.666 234.845C338.003 236.755 340.669 237.194 342.636 235.844L285.922 275.555C287.864 274.169 288.363 271.513 287.025 269.603L286.977 269.535L268.189 242.703Z" fill="url(#paint2_linear_74_194)" fill-opacity="0.11" shape-rendering="crispEdges"/>
<path d="M690.124 745.054C692.282 748.053 693.36 749.781 695.106 753.038L672.987 768.526L650.868 784.014C648.404 781.259 647.152 779.654 645.079 776.595L690.124 745.054Z" fill="url(#paint3_linear_74_194)" shape-rendering="crispEdges"/>
<path d="M690.124 745.054C692.282 748.053 693.36 749.781 695.106 753.038L672.987 768.526L650.868 784.014C648.404 781.259 647.152 779.654 645.079 776.595L690.124 745.054Z" fill="url(#paint4_linear_74_194)" fill-opacity="0.62" shape-rendering="crispEdges"/>
<path d="M282.779 391.691L289.981 401.977L315.032 437.753L325.716 453.013C327.446 455.483 326.79 458.926 324.251 460.704L309.543 471.002C307.005 472.78 303.545 472.219 301.815 469.749L258.877 408.427C257.148 405.957 257.804 402.514 260.342 400.737L275.051 390.438C277.589 388.66 281.049 389.221 282.779 391.691Z" fill="url(#paint5_linear_74_194)" fill-opacity="0.97" shape-rendering="crispEdges"/>
<path d="M282.779 391.691L289.981 401.977L315.032 437.753L325.716 453.013C327.446 455.483 326.79 458.926 324.251 460.704L309.543 471.002C307.005 472.78 303.545 472.219 301.815 469.749L258.877 408.427C257.148 405.957 257.804 402.514 260.342 400.737L275.051 390.438C277.589 388.66 281.049 389.221 282.779 391.691Z" fill="#F5F5F5" fill-opacity="0.64" shape-rendering="crispEdges"/>
<path d="M650.868 784.014L672.987 768.526L695.106 753.038C696.701 761.494 697.35 775.507 697.35 775.507L698.533 796.136C698.621 797.677 697.886 799.172 696.596 800.076L694.631 801.453C693.342 802.355 691.689 802.536 690.271 801.929L671.252 793.782C671.252 793.782 658.284 788.394 650.868 784.014Z" fill="url(#paint6_linear_74_194)" shape-rendering="crispEdges"/>
<path d="M650.868 784.014L672.987 768.526L695.106 753.038C696.701 761.494 697.35 775.507 697.35 775.507L698.533 796.136C698.621 797.677 697.886 799.172 696.596 800.076L694.631 801.453C693.342 802.355 691.689 802.536 690.271 801.929L671.252 793.782C671.252 793.782 658.284 788.394 650.868 784.014Z" fill="url(#paint7_linear_74_194)" fill-opacity="0.75" shape-rendering="crispEdges"/>
<path d="M421.551 439.226L400.258 408.816L429.876 388.077L451.17 418.487L421.551 439.226Z" fill="url(#paint8_linear_74_194)" fill-opacity="0.97" shape-rendering="crispEdges"/>
<path d="M421.551 439.226L400.258 408.816L429.876 388.077L451.17 418.487L421.551 439.226Z" fill="url(#paint9_linear_74_194)" fill-opacity="0.97" shape-rendering="crispEdges"/>
<path d="M462.259 528.679L410.515 454.319C433.677 438.498 445.758 429.762 468.348 413.123L611.232 617.184C611.98 618.251 613.096 619.008 614.377 619.319L573.992 647.597C573.722 647.786 573.547 648.08 573.512 648.402L572.66 656.257C572.558 657.193 573.608 657.79 574.392 657.241L623.449 621.891L699.322 732.249C701.051 734.719 700.395 738.162 697.857 739.94L690.124 745.054L645.079 776.595L633.589 784.641C631.05 786.418 627.59 785.857 625.861 783.387L624.887 781.997C624.164 780.963 623.832 779.706 623.943 778.442C623.961 778.233 624.014 778.028 624.084 777.828L625.179 774.673C625.248 774.473 625.301 774.268 625.32 774.059C625.43 772.795 625.099 771.538 624.375 770.505L617.452 760.617L620.838 744.765C621.028 743.878 620.845 742.962 620.332 742.23L469.829 528.718C468.792 527.236 466.716 526.899 465.193 527.966L462.889 529.579L462.259 528.679Z" fill="url(#paint10_linear_74_194)" fill-opacity="0.97" shape-rendering="crispEdges"/>
<path d="M462.259 528.679L410.515 454.319C433.677 438.498 445.758 429.762 468.348 413.123L611.232 617.184C611.98 618.251 613.096 619.008 614.377 619.319L573.992 647.597C573.722 647.786 573.547 648.08 573.512 648.402L572.66 656.257C572.558 657.193 573.608 657.79 574.392 657.241L623.449 621.891L699.322 732.249C701.051 734.719 700.395 738.162 697.857 739.94L690.124 745.054L645.079 776.595L633.589 784.641C631.05 786.418 627.59 785.857 625.861 783.387L624.887 781.997C624.164 780.963 623.832 779.706 623.943 778.442C623.961 778.233 624.014 778.028 624.084 777.828L625.179 774.673C625.248 774.473 625.301 774.268 625.32 774.059C625.43 772.795 625.099 771.538 624.375 770.505L617.452 760.617L620.838 744.765C621.028 743.878 620.845 742.962 620.332 742.23L469.829 528.718C468.792 527.236 466.716 526.899 465.193 527.966L462.889 529.579L462.259 528.679Z" fill="url(#paint11_linear_74_194)" fill-opacity="0.97" shape-rendering="crispEdges"/>
<path d="M476.793 561.164C475.756 559.682 473.68 559.345 472.157 560.411L468.994 562.626C463.248 566.649 455.603 566.479 450.261 562.209C448.026 560.423 446.357 558.039 445.443 555.329C443.258 548.848 445.713 541.606 451.459 537.582L462.889 529.579L465.193 527.966C466.716 526.899 468.792 527.236 469.829 528.718L620.332 742.23C620.845 742.962 621.028 743.878 620.838 744.765L617.452 760.617L476.793 561.164Z" fill="url(#paint12_linear_74_194)" fill-opacity="0.97" shape-rendering="crispEdges"/>
<path d="M476.793 561.164C475.756 559.682 473.68 559.345 472.157 560.411L468.994 562.626C463.248 566.649 455.603 566.479 450.261 562.209C448.026 560.423 446.357 558.039 445.443 555.329C443.258 548.848 445.713 541.606 451.459 537.582L462.889 529.579L465.193 527.966C466.716 526.899 468.792 527.236 469.829 528.718L620.332 742.23C620.845 742.962 621.028 743.878 620.838 744.765L617.452 760.617L476.793 561.164Z" fill="url(#paint13_linear_74_194)" fill-opacity="0.97" shape-rendering="crispEdges"/>
<path d="M620.304 620.756C621.585 621.066 622.701 620.823 623.449 621.891L574.392 657.241C573.608 657.79 572.558 657.193 572.66 656.257L573.512 648.402C573.547 648.08 573.722 647.786 573.992 647.597L614.377 619.319L620.304 620.756Z" fill="url(#paint14_linear_74_194)" fill-opacity="0.97" shape-rendering="crispEdges"/>
<path d="M620.304 620.756C621.585 621.066 622.701 620.823 623.449 621.891L574.392 657.241C573.608 657.79 572.558 657.193 572.66 656.257L573.512 648.402C573.547 648.08 573.722 647.786 573.992 647.597L614.377 619.319L620.304 620.756Z" fill="url(#paint15_linear_74_194)" fill-opacity="0.97" shape-rendering="crispEdges"/>
<path d="M411.98 446.628L421.551 439.226L451.17 418.487L460.62 411.87C463.159 410.092 466.619 410.654 468.348 413.123C445.758 429.762 433.677 438.498 410.515 454.319C408.785 451.849 409.441 448.406 411.98 446.628Z" fill="url(#paint16_linear_74_194)" fill-opacity="0.97" shape-rendering="crispEdges"/>
<path d="M411.98 446.628L421.551 439.226L451.17 418.487L460.62 411.87C463.159 410.092 466.619 410.654 468.348 413.123C445.758 429.762 433.677 438.498 410.515 454.319C408.785 451.849 409.441 448.406 411.98 446.628Z" fill="url(#paint17_linear_74_194)" fill-opacity="0.97" shape-rendering="crispEdges"/>
<path d="M289.981 401.977C288.251 399.507 288.008 398.693 290.546 396.916L342.485 360.548C344.008 359.481 344.402 357.415 343.364 355.933L338.354 348.778C337.316 347.296 335.241 346.959 333.717 348.026L259.716 399.842C257.178 401.62 253.718 401.058 251.988 398.589L248.857 394.116C247.128 391.647 247.784 388.203 250.322 386.426L324.323 334.61C325.846 333.543 326.24 331.477 325.202 329.995L320.192 322.84C319.155 321.358 317.079 321.022 315.556 322.088L241.554 373.904C239.016 375.682 235.556 375.12 233.827 372.651L230.695 368.179C228.966 365.709 229.622 362.266 232.16 360.488L306.161 308.672C307.685 307.605 308.078 305.539 307.04 304.058L300.503 294.721C299.465 293.239 297.389 292.902 295.866 293.969L205.318 357.371C202.78 359.149 199.32 358.587 197.59 356.118L191.328 347.173C189.598 344.704 190.254 341.261 192.793 339.483C192.793 339.483 250.957 299.517 285.782 275.654L285.852 275.605M289.981 401.977L282.779 391.691C281.049 389.221 277.589 388.66 275.051 390.438L260.342 400.737C257.804 402.514 257.148 405.957 258.877 408.427L301.815 469.749C303.545 472.219 307.005 472.78 309.543 471.002L324.251 460.704C326.79 458.926 327.446 455.483 325.716 453.013L315.032 437.753M289.981 401.977L315.032 437.753M315.032 437.753C316.761 440.223 317.443 440.73 319.981 438.953L326.416 434.447C328.955 432.67 328.232 430.192 326.502 427.722L312.724 408.045C310.995 405.575 311.651 402.132 314.189 400.355L351.879 373.964C353.402 372.897 355.478 373.234 356.516 374.716L361.526 381.871C362.564 383.353 362.17 385.419 360.647 386.486L333.529 405.474C330.99 407.252 330.334 410.695 332.064 413.165L335.195 417.637C336.924 420.106 340.384 420.668 342.923 418.89L370.041 399.902C371.564 398.835 373.64 399.172 374.678 400.654L376.906 403.836C377.875 405.22 378.079 407 377.45 408.567L368.937 429.756C368.576 430.656 367.96 431.431 367.166 431.988L310.169 471.897C307.631 473.674 306.975 477.118 308.704 479.587L346.907 534.146C347.599 535.134 348.983 535.359 349.998 534.648L359.191 528.211C360.714 527.145 361.107 525.079 360.07 523.597L329.903 480.515C329.27 479.61 329.49 478.363 330.395 477.729L339.068 471.656C339.973 471.022 341.22 471.242 341.854 472.147L366.801 507.775C367.741 509.117 369.807 508.822 370.333 507.27L374.551 494.833C374.756 494.23 374.661 493.565 374.296 493.044L353.804 463.779C353.171 462.874 353.391 461.627 354.296 460.993L362.969 454.92C363.874 454.286 365.121 454.506 365.755 455.411L378.424 473.505C379.364 474.847 381.43 474.552 381.957 473L386.175 460.563C386.38 459.96 386.285 459.295 385.919 458.774L378.875 448.713C377.595 446.886 378.039 444.368 379.866 443.088C381.894 441.669 383.408 439.636 384.173 437.308L390.345 418.522C391.11 416.194 392.624 414.161 394.652 412.742L400.258 408.816M400.258 408.816L421.551 439.226M400.258 408.816L429.876 388.077M421.551 439.226L411.98 446.628C409.441 448.406 408.785 451.849 410.515 454.319M421.551 439.226L451.17 418.487M410.515 454.319L462.259 528.679L462.889 529.579M410.515 454.319C433.677 438.498 445.758 429.762 468.348 413.123M462.889 529.579L451.459 537.582C445.713 541.606 443.258 548.848 445.443 555.329C446.357 558.039 448.026 560.423 450.261 562.209C455.603 566.479 463.248 566.649 468.994 562.626L472.157 560.411C473.68 559.345 475.756 559.682 476.793 561.164L617.452 760.617M462.889 529.579L465.193 527.966C466.716 526.899 468.792 527.236 469.829 528.718L620.332 742.23C620.845 742.962 621.028 743.878 620.838 744.765L617.452 760.617M623.449 621.891L699.322 732.249C701.051 734.719 700.395 738.162 697.857 739.94L690.124 745.054M623.449 621.891C622.701 620.823 621.585 621.066 620.304 620.756L614.377 619.319M623.449 621.891L574.392 657.241C573.608 657.79 572.558 657.193 572.66 656.257L573.512 648.402C573.547 648.08 573.722 647.786 573.992 647.597L614.377 619.319M614.377 619.319C613.096 619.008 611.98 618.251 611.232 617.184L468.348 413.123M468.348 413.123C466.619 410.654 463.159 410.092 460.62 411.87L451.17 418.487M451.17 418.487L429.876 388.077M429.876 388.077L434.942 384.53C436.608 383.363 438.552 382.659 440.564 382.493L465.31 382.986C467.323 382.82 469.266 382.116 470.932 380.949L484.158 371.688C485.062 371.055 486.31 371.275 486.943 372.18L494.425 382.864C494.79 383.386 495.382 383.703 496.019 383.717L509.148 384.007C510.786 384.043 511.771 382.202 510.831 380.86L498.894 363.812C498.26 362.907 498.48 361.66 499.385 361.026L508.059 354.953C508.963 354.319 510.211 354.539 510.844 355.444L530.603 383.663C530.969 384.185 531.561 384.501 532.198 384.515L545.327 384.805C546.965 384.841 547.949 383 547.009 381.658L522.795 347.076C522.161 346.171 522.381 344.924 523.286 344.291L531.96 338.217C532.865 337.584 534.112 337.803 534.745 338.708L564.148 380.7C565.186 382.182 567.262 382.518 568.785 381.452L577.977 375.015C578.993 374.304 579.255 372.927 578.563 371.939L540.361 317.38C538.631 314.91 535.935 315.439 533.397 317.217L462.872 366.599C462.005 367.206 460.968 367.522 459.91 367.502L435.858 367.051C434.26 367.021 432.772 366.229 431.856 364.92L429.834 362.033C428.797 360.551 429.19 358.485 430.713 357.419L518.504 295.947C521.042 294.17 521.698 290.727 519.969 288.257L516.837 283.785C515.108 281.315 511.648 280.754 509.109 282.531L421.319 344.003C419.796 345.069 417.72 344.732 416.682 343.25L411.672 336.095C410.635 334.613 411.028 332.547 412.551 331.481L500.342 270.009C502.88 268.232 503.536 264.789 501.807 262.319L498.675 257.847C496.946 255.377 493.486 254.816 490.947 256.593L403.157 318.065C401.634 319.131 399.558 318.794 398.521 317.313L393.51 310.157C392.473 308.675 392.866 306.609 394.389 305.543L482.18 244.072C484.718 242.294 485.374 238.851 483.645 236.381L480.513 231.909C478.784 229.439 475.324 228.878 472.786 230.655L384.995 292.127C383.472 293.193 381.396 292.857 380.359 291.375L375.348 284.219C374.311 282.737 374.704 280.672 376.227 279.605L464.018 218.134C466.556 216.356 467.212 212.913 465.483 210.443L462.351 205.971C460.622 203.501 457.162 202.94 454.624 204.717L366.833 266.189C365.31 267.255 363.234 266.919 362.197 265.437L355.659 256.1C354.621 254.618 355.015 252.552 356.538 251.486L444.328 190.014C446.867 188.237 447.523 184.794 445.793 182.324L439.531 173.38C437.801 170.91 434.341 170.349 431.803 172.126C431.803 172.126 376.04 211.934 342.777 235.746L342.706 235.795M286.977 269.535L268.189 242.703C267.152 241.221 267.545 239.155 269.068 238.089L313.193 207.192C314.716 206.126 316.792 206.462 317.83 207.944L336.618 234.776M286.977 269.535C288.341 271.483 287.832 274.191 285.852 275.605M286.977 269.535L287.025 269.603C288.363 271.513 287.864 274.169 285.922 275.555M285.852 275.605L285.922 275.555M285.852 275.605C285.876 275.588 285.899 275.572 285.922 275.555M342.706 235.795C340.701 237.172 337.982 236.724 336.618 234.776M342.706 235.795L342.636 235.844M342.706 235.795C342.683 235.811 342.66 235.828 342.636 235.844M336.618 234.776L336.666 234.845C338.003 236.755 340.669 237.194 342.636 235.844M285.922 275.555L342.636 235.844M695.106 753.038C693.36 749.781 692.282 748.053 690.124 745.054M695.106 753.038C696.701 761.494 697.35 775.507 697.35 775.507L698.533 796.136C698.621 797.677 697.886 799.172 696.596 800.076L694.631 801.453C693.342 802.355 691.689 802.536 690.271 801.929L671.252 793.782C671.252 793.782 658.284 788.394 650.868 784.014M695.106 753.038L672.987 768.526L650.868 784.014M690.124 745.054L645.079 776.595M650.868 784.014C648.404 781.259 647.152 779.654 645.079 776.595M645.079 776.595L633.589 784.641C631.05 786.418 627.59 785.857 625.861 783.387L624.887 781.997C624.164 780.963 623.832 779.706 623.943 778.442C623.961 778.233 624.014 778.028 624.084 777.828L625.179 774.673C625.248 774.473 625.301 774.268 625.32 774.059C625.43 772.795 625.099 771.538 624.375 770.505L617.452 760.617" stroke="#4E4E4E" stroke-opacity="0.07" stroke-width="3" shape-rendering="crispEdges"/>
</g>
<g filter="url(#filter1_di_74_194)">
<path fill-rule="evenodd" clip-rule="evenodd" d="M2103.64 -1199.35L1998.63 -1094.34C1998.06 -1093.77 1997.38 -1093.31 1996.62 -1092.98L1800.95 -1008.89L1759.15 -967.1L2011.69 -714.565L2053.48 -756.357L2137.57 -952.028C2137.9 -952.79 2138.35 -953.468 2138.92 -954.039L2243.94 -1059.05C2247.01 -1062.13 2246.37 -1067.76 2242.49 -1071.64L2238.99 -1075.15L2347.22 -1183.38C2351.31 -1187.47 2348.66 -1195.51 2342.26 -1198.43L2197.71 -1264.32C2194.33 -1265.86 2190.8 -1265.46 2188.64 -1263.3L2119.73 -1194.4L2116.23 -1197.91C2112.35 -1201.78 2106.72 -1202.43 2103.64 -1199.35Z" fill="#F5F5F5"/>
<path d="M1732.54 -982.572L484.337 265.627L778.961 560.251L2027.16 -687.948C2030.24 -691.025 2029.59 -696.661 2025.72 -700.535L2011.69 -714.565L1759.15 -967.1L1745.12 -981.13C1741.25 -985.004 1735.61 -985.65 1732.54 -982.572Z" fill="#F5F5F5"/>
<path d="M762.244 576.968L778.961 560.251L484.337 265.627L467.62 282.344C464.543 285.421 465.188 291.057 469.062 294.931L481.339 307.207L737.381 563.25L749.657 575.526C753.531 579.4 759.167 580.046 762.244 576.968Z" fill="#F5F5F5"/>
<path d="M256.663 717.776C256.663 717.776 192.992 798.985 221.051 827.044C249.111 855.104 326.812 787.925 326.812 787.925L256.663 717.776Z" fill="#F5F5F5"/>
<path d="M400.072 749.739L294.849 644.516L244.699 694.667C241.621 697.744 242.267 703.38 246.141 707.254L256.663 717.776L326.812 787.925L337.334 798.447C341.209 802.321 346.844 802.967 349.922 799.89L400.072 749.739Z" fill="#F5F5F5"/>
<path d="M371.128 533.163L282.885 621.406C279.807 624.484 280.453 630.119 284.327 633.993L294.849 644.516L400.072 749.739L410.595 760.261C414.469 764.135 420.104 764.781 423.182 761.704L511.426 673.46C512.03 672.855 512.755 672.378 513.572 672.048L699.722 596.759C700.437 596.47 701.083 596.068 701.639 595.565L737.381 563.25L481.339 307.207L449.024 342.949C448.521 343.505 448.118 344.151 447.829 344.866L372.54 531.017C372.21 531.833 371.733 532.558 371.128 533.163Z" fill="#F5F5F5"/>
<path d="M484.337 265.627L1732.54 -982.572C1735.61 -985.65 1741.25 -985.004 1745.12 -981.13L1759.15 -967.1M484.337 265.627L467.62 282.344C464.543 285.421 465.188 291.057 469.062 294.931L481.339 307.207M484.337 265.627L778.961 560.251M2011.69 -714.565L2025.72 -700.535C2029.59 -696.661 2030.24 -691.025 2027.16 -687.948L778.961 560.251M2011.69 -714.565L2053.48 -756.357M2011.69 -714.565L1759.15 -967.1M1759.15 -967.1L1800.95 -1008.89M1800.95 -1008.89L1996.62 -1092.98C1997.38 -1093.31 1998.06 -1093.77 1998.63 -1094.34L2103.64 -1199.35C2106.72 -1202.43 2112.35 -1201.78 2116.23 -1197.91L2119.73 -1194.4M1800.95 -1008.89L2053.48 -756.357M2053.48 -756.357L2137.57 -952.028C2137.9 -952.79 2138.35 -953.468 2138.92 -954.039L2243.94 -1059.05C2247.01 -1062.13 2246.37 -1067.76 2242.49 -1071.64L2238.99 -1075.15M2119.73 -1194.4L2238.99 -1075.15M2119.73 -1194.4L2188.64 -1263.3C2190.8 -1265.46 2194.33 -1265.86 2197.71 -1264.32L2342.26 -1198.43C2348.66 -1195.51 2351.31 -1187.47 2347.22 -1183.38L2238.99 -1075.15M778.961 560.251L762.244 576.968C759.167 580.046 753.531 579.4 749.657 575.526L737.381 563.25M737.381 563.25L481.339 307.207M737.381 563.25L701.639 595.565C701.083 596.068 700.437 596.47 699.722 596.759L513.572 672.048C512.755 672.378 512.03 672.855 511.426 673.46L423.182 761.704C420.104 764.781 414.469 764.135 410.595 760.261L400.072 749.739M481.339 307.207L449.024 342.949C448.521 343.505 448.118 344.151 447.829 344.866L372.54 531.017C372.21 531.833 371.733 532.558 371.128 533.163L282.885 621.406C279.807 624.484 280.453 630.119 284.327 633.993L294.849 644.516M400.072 749.739L294.849 644.516M400.072 749.739L349.922 799.89C346.844 802.967 341.209 802.321 337.334 798.447L326.812 787.925M294.849 644.516L244.699 694.667C241.621 697.744 242.267 703.38 246.141 707.254L256.663 717.776M256.663 717.776C256.663 717.776 192.992 798.985 221.051 827.044C249.111 855.104 326.812 787.925 326.812 787.925M256.663 717.776L326.812 787.925" stroke="url(#paint18_linear_74_194)" stroke-opacity="0.15" stroke-width="6"/>
</g>
</g>
</g>
<defs>
<filter id="filter0_dg_74_194" x="185.561" y="157.289" width="559.528" height="680.795" filterUnits="userSpaceOnUse" color-interpolation-filters="sRGB">
<feFlood flood-opacity="0" result="BackgroundImageFix"/>
<feColorMatrix in="SourceAlpha" type="matrix" values="0 0 0 0 0 0 0 0 0 0 0 0 0 0 0 0 0 0 127 0" result="hardAlpha"/>
<feOffset dx="20" dy="11"/>
<feGaussianBlur stdDeviation="11.65"/>
<feComposite in2="hardAlpha" operator="out"/>
<feColorMatrix type="matrix" values="0 0 0 0 0 0 0 0 0 0 0 0 0 0 0 0 0 0 0.25 0"/>
<feBlend mode="normal" in2="BackgroundImageFix" result="effect1_dropShadow_74_194"/>
<feBlend mode="normal" in="SourceGraphic" in2="effect1_dropShadow_74_194" result="shape"/>
<feTurbulence type="fractalNoise" baseFrequency="0.76923078298568726 0.76923078298568726" numOctaves="3" seed="3278" />
<feDisplacementMap in="shape" scale="3.4000000953674316" xChannelSelector="R" yChannelSelector="G" result="displacedImage" width="100%" height="100%" />
<feMerge result="effect2_texture_74_194">
<feMergeNode in="displacedImage"/>
</feMerge>
</filter>
<filter id="filter1_di_74_194" x="202.911" y="-1281.24" width="2247.56" height="2212.44" filterUnits="userSpaceOnUse" color-interpolation-filters="sRGB">
<feFlood flood-opacity="0" result="BackgroundImageFix"/>
<feColorMatrix in="SourceAlpha" type="matrix" values="0 0 0 0 0 0 0 0 0 0 0 0 0 0 0 0 0 0 127 0" result="hardAlpha"/>
<feOffset dx="53" dy="49"/>
<feGaussianBlur stdDeviation="22.65"/>
<feComposite in2="hardAlpha" operator="out"/>
<feColorMatrix type="matrix" values="0 0 0 0 0 0 0 0 0 0 0 0 0 0 0 0 0 0 0.2 0"/>
<feBlend mode="normal" in2="BackgroundImageFix" result="effect1_dropShadow_74_194"/>
<feBlend mode="normal" in="SourceGraphic" in2="effect1_dropShadow_74_194" result="shape"/>
<feColorMatrix in="SourceAlpha" type="matrix" values="0 0 0 0 0 0 0 0 0 0 0 0 0 0 0 0 0 0 127 0" result="hardAlpha"/>
<feOffset dx="-8" dy="-13"/>
<feGaussianBlur stdDeviation="20.45"/>
<feComposite in2="hardAlpha" operator="arithmetic" k2="-1" k3="1"/>
<feColorMatrix type="matrix" values="0 0 0 0 0 0 0 0 0 0 0 0 0 0 0 0 0 0 0.25 0"/>
<feBlend mode="normal" in2="shape" result="effect2_innerShadow_74_194"/>
</filter>
<linearGradient id="paint0_linear_74_194" x1="0" y1="0" x2="636.824" y2="1825.89" gradientUnits="userSpaceOnUse">
<stop stop-color="#60A5FA"/>
<stop offset="1" stop-color="#1D4ED8"/>
</linearGradient>
<linearGradient id="paint1_linear_74_194" x1="528.5" y1="642.5" x2="611" y2="584.5" gradientUnits="userSpaceOnUse">
<stop stop-color="#A2A2A2"/>
<stop offset="0.0474029" stop-color="#A3A3A3"/>
<stop offset="0.0891397"/>
<stop offset="0.171286" stop-color="#F8F5F5"/>
<stop offset="0.238496" stop-color="#C3C3C3"/>
<stop offset="0.283871" stop-color="#E0E0E0"/>
<stop offset="0.376369" stop-color="#E3E3E3"/>
<stop offset="0.431954" stop-color="#D5D5D5"/>
<stop offset="0.501392" stop-color="#EDEAEA"/>
<stop offset="0.625946" stop-color="#F4EEEE"/>
<stop offset="0.726369" stop-color="#D8D8D8"/>
<stop offset="1"/>
</linearGradient>
<linearGradient id="paint2_linear_74_194" x1="528.5" y1="642.5" x2="611" y2="584.5" gradientUnits="userSpaceOnUse">
<stop stop-color="#A2A2A2"/>
<stop offset="0.0474029" stop-color="#A3A3A3"/>
<stop offset="0.0891397"/>
<stop offset="0.171286" stop-color="#F8F5F5"/>
<stop offset="0.238496" stop-color="#C3C3C3"/>
<stop offset="0.283871" stop-color="#E0E0E0"/>
<stop offset="0.376369" stop-color="#E3E3E3"/>
<stop offset="0.431954" stop-color="#D5D5D5"/>
<stop offset="0.501392" stop-color="#EDEAEA"/>
<stop offset="0.625946" stop-color="#F4EEEE"/>
<stop offset="0.726369" stop-color="#D8D8D8"/>
<stop offset="1"/>
</linearGradient>
<linearGradient id="paint3_linear_74_194" x1="528.724" y1="642.82" x2="611.224" y2="584.82" gradientUnits="userSpaceOnUse">
<stop offset="0.0721183" stop-color="#A2A2A2"/>
<stop offset="0.149044" stop-color="#A3A3A3"/>
<stop offset="0.177891"/>
<stop offset="0.235586" stop-color="#F8F5F5"/>
<stop offset="0.370192" stop-color="#D4D4D4"/>
<stop offset="0.403846" stop-color="#D2D2D2"/>
<stop offset="0.451923" stop-color="#C6C6C6"/>
<stop offset="0.495192" stop-color="#CECECE"/>
<stop offset="0.5625" stop-color="#E0E0E0"/>
<stop offset="0.658678" stop-color="#D0D0D0"/>
<stop offset="0.726269"/>
<stop offset="0.783692" stop-color="#D8D8D8"/>
</linearGradient>
<linearGradient id="paint4_linear_74_194" x1="528.5" y1="642.5" x2="611" y2="584.5" gradientUnits="userSpaceOnUse">
<stop stop-color="#A2A2A2"/>
<stop offset="0.0474029" stop-color="#A3A3A3"/>
<stop offset="0.0891397"/>
<stop offset="0.171286" stop-color="#F8F5F5"/>
<stop offset="0.238496" stop-color="#C3C3C3"/>
<stop offset="0.283871" stop-color="#E0E0E0"/>
<stop offset="0.376369" stop-color="#E3E3E3"/>
<stop offset="0.431954" stop-color="#D5D5D5"/>
<stop offset="0.501392" stop-color="#EDEAEA"/>
<stop offset="0.625946" stop-color="#F4EEEE"/>
<stop offset="0.726369" stop-color="#D8D8D8"/>
<stop offset="1"/>
</linearGradient>
<linearGradient id="paint5_linear_74_194" x1="528.5" y1="642.5" x2="611" y2="584.5" gradientUnits="userSpaceOnUse">
<stop stop-color="#A2A2A2"/>
<stop offset="0.0474029" stop-color="#A3A3A3"/>
<stop offset="0.0891397"/>
<stop offset="0.171286" stop-color="#F8F5F5"/>
<stop offset="0.238496" stop-color="#C3C3C3"/>
<stop offset="0.283871" stop-color="#E0E0E0"/>
<stop offset="0.376369" stop-color="#E3E3E3"/>
<stop offset="0.431954" stop-color="#D5D5D5"/>
<stop offset="0.501392" stop-color="#EDEAEA"/>
<stop offset="0.625946" stop-color="#F4EEEE"/>
<stop offset="0.726369" stop-color="#D8D8D8"/>
<stop offset="1"/>
</linearGradient>
<linearGradient id="paint6_linear_74_194" x1="528.5" y1="642.5" x2="611" y2="584.5" gradientUnits="userSpaceOnUse">
<stop stop-color="#A2A2A2"/>
<stop offset="0.0474029" stop-color="#A3A3A3"/>
<stop offset="0.0891397"/>
<stop offset="0.171286" stop-color="#F8F5F5"/>
<stop offset="0.238496" stop-color="#C3C3C3"/>
<stop offset="0.283871" stop-color="#E0E0E0"/>
<stop offset="0.376369" stop-color="#E3E3E3"/>
<stop offset="0.431954" stop-color="#D5D5D5"/>
<stop offset="0.501392" stop-color="#EDEAEA"/>
<stop offset="0.625946" stop-color="#F4EEEE"/>
<stop offset="0.726369" stop-color="#D8D8D8"/>
<stop offset="1"/>
</linearGradient>
<linearGradient id="paint7_linear_74_194" x1="528.724" y1="642.82" x2="611.224" y2="584.82" gradientUnits="userSpaceOnUse">
<stop offset="0.0721183" stop-color="#A2A2A2"/>
<stop offset="0.149044" stop-color="#A3A3A3"/>
<stop offset="0.177891"/>
<stop offset="0.235586" stop-color="#F8F5F5"/>
<stop offset="0.370192" stop-color="#D4D4D4"/>
<stop offset="0.403846" stop-color="#D2D2D2"/>
<stop offset="0.451923" stop-color="#C6C6C6"/>
<stop offset="0.495192" stop-color="#CECECE"/>
<stop offset="0.5625" stop-color="#E0E0E0"/>
<stop offset="0.658678" stop-color="#D0D0D0"/>
<stop offset="0.726269"/>
<stop offset="0.783692" stop-color="#D8D8D8"/>
</linearGradient>
<linearGradient id="paint8_linear_74_194" x1="528.5" y1="642.5" x2="611" y2="584.5" gradientUnits="userSpaceOnUse">
<stop stop-color="#A2A2A2"/>
<stop offset="0.0474029" stop-color="#A3A3A3"/>
<stop offset="0.0891397"/>
<stop offset="0.171286" stop-color="#F8F5F5"/>
<stop offset="0.238496" stop-color="#C3C3C3"/>
<stop offset="0.283871" stop-color="#E0E0E0"/>
<stop offset="0.376369" stop-color="#E3E3E3"/>
<stop offset="0.431954" stop-color="#D5D5D5"/>
<stop offset="0.501392" stop-color="#EDEAEA"/>
<stop offset="0.625946" stop-color="#F4EEEE"/>
<stop offset="0.726369" stop-color="#D8D8D8"/>
<stop offset="1"/>
</linearGradient>
<linearGradient id="paint9_linear_74_194" x1="528.5" y1="642.5" x2="611" y2="584.5" gradientUnits="userSpaceOnUse">
<stop stop-color="#A2A2A2"/>
<stop offset="0.0474029" stop-color="#A3A3A3"/>
<stop offset="0.0891397"/>
<stop offset="0.171286" stop-color="#F8F5F5"/>
<stop offset="0.238496" stop-color="#C3C3C3"/>
<stop offset="0.283871" stop-color="#E0E0E0"/>
<stop offset="0.376369" stop-color="#E3E3E3"/>
<stop offset="0.431954" stop-color="#D5D5D5"/>
<stop offset="0.501392" stop-color="#EDEAEA"/>
<stop offset="0.625946" stop-color="#F4EEEE"/>
<stop offset="0.726369" stop-color="#D8D8D8"/>
<stop offset="1"/>
</linearGradient>
<linearGradient id="paint10_linear_74_194" x1="528.5" y1="642.5" x2="611" y2="584.5" gradientUnits="userSpaceOnUse">
<stop stop-color="#A2A2A2"/>
<stop offset="0.0474029" stop-color="#A3A3A3"/>
<stop offset="0.0891397"/>
<stop offset="0.171286" stop-color="#F8F5F5"/>
<stop offset="0.238496" stop-color="#C3C3C3"/>
<stop offset="0.283871" stop-color="#E0E0E0"/>
<stop offset="0.376369" stop-color="#E3E3E3"/>
<stop offset="0.431954" stop-color="#D5D5D5"/>
<stop offset="0.501392" stop-color="#EDEAEA"/>
<stop offset="0.625946" stop-color="#F4EEEE"/>
<stop offset="0.726369" stop-color="#D8D8D8"/>
<stop offset="1"/>
</linearGradient>
<linearGradient id="paint11_linear_74_194" x1="528.5" y1="642.5" x2="611" y2="584.5" gradientUnits="userSpaceOnUse">
<stop stop-color="#A2A2A2"/>
<stop offset="0.0474029" stop-color="#A3A3A3"/>
<stop offset="0.0891397"/>
<stop offset="0.171286" stop-color="#F8F5F5"/>
<stop offset="0.238496" stop-color="#C3C3C3"/>
<stop offset="0.283871" stop-color="#E0E0E0"/>
<stop offset="0.376369" stop-color="#E3E3E3"/>
<stop offset="0.431954" stop-color="#D5D5D5"/>
<stop offset="0.501392" stop-color="#EDEAEA"/>
<stop offset="0.625946" stop-color="#F4EEEE"/>
<stop offset="0.726369" stop-color="#D8D8D8"/>
<stop offset="1"/>
</linearGradient>
<linearGradient id="paint12_linear_74_194" x1="528.5" y1="642.5" x2="611" y2="584.5" gradientUnits="userSpaceOnUse">
<stop stop-color="#A2A2A2"/>
<stop offset="0.0474029" stop-color="#A3A3A3"/>
<stop offset="0.0891397"/>
<stop offset="0.171286" stop-color="#F8F5F5"/>
<stop offset="0.238496" stop-color="#C3C3C3"/>
<stop offset="0.283871" stop-color="#E0E0E0"/>
<stop offset="0.376369" stop-color="#E3E3E3"/>
<stop offset="0.431954" stop-color="#D5D5D5"/>
<stop offset="0.501392" stop-color="#EDEAEA"/>
<stop offset="0.625946" stop-color="#F4EEEE"/>
<stop offset="0.726369" stop-color="#D8D8D8"/>
<stop offset="1"/>
</linearGradient>
<linearGradient id="paint13_linear_74_194" x1="528.5" y1="642.5" x2="611" y2="584.5" gradientUnits="userSpaceOnUse">
<stop stop-color="#A2A2A2"/>
<stop offset="0.0474029" stop-color="#A3A3A3"/>
<stop offset="0.0891397"/>
<stop offset="0.171286" stop-color="#F8F5F5"/>
<stop offset="0.238496" stop-color="#C3C3C3"/>
<stop offset="0.283871" stop-color="#E0E0E0"/>
<stop offset="0.376369" stop-color="#E3E3E3"/>
<stop offset="0.431954" stop-color="#D5D5D5"/>
<stop offset="0.501392" stop-color="#EDEAEA"/>
<stop offset="0.625946" stop-color="#F4EEEE"/>
<stop offset="0.726369" stop-color="#D8D8D8"/>
<stop offset="1"/>
</linearGradient>
<linearGradient id="paint14_linear_74_194" x1="528.5" y1="642.5" x2="611" y2="584.5" gradientUnits="userSpaceOnUse">
<stop stop-color="#A2A2A2"/>
<stop offset="0.0474029" stop-color="#A3A3A3"/>
<stop offset="0.0891397"/>
<stop offset="0.171286" stop-color="#F8F5F5"/>
<stop offset="0.238496" stop-color="#C3C3C3"/>
<stop offset="0.283871" stop-color="#E0E0E0"/>
<stop offset="0.376369" stop-color="#E3E3E3"/>
<stop offset="0.431954" stop-color="#D5D5D5"/>
<stop offset="0.501392" stop-color="#EDEAEA"/>
<stop offset="0.625946" stop-color="#F4EEEE"/>
<stop offset="0.726369" stop-color="#D8D8D8"/>
<stop offset="1"/>
</linearGradient>
<linearGradient id="paint15_linear_74_194" x1="528.5" y1="642.5" x2="611" y2="584.5" gradientUnits="userSpaceOnUse">
<stop stop-color="#A2A2A2"/>
<stop offset="0.0474029" stop-color="#A3A3A3"/>
<stop offset="0.0891397"/>
<stop offset="0.171286" stop-color="#F8F5F5"/>
<stop offset="0.238496" stop-color="#C3C3C3"/>
<stop offset="0.283871" stop-color="#E0E0E0"/>
<stop offset="0.376369" stop-color="#E3E3E3"/>
<stop offset="0.431954" stop-color="#D5D5D5"/>
<stop offset="0.501392" stop-color="#EDEAEA"/>
<stop offset="0.625946" stop-color="#F4EEEE"/>
<stop offset="0.726369" stop-color="#D8D8D8"/>
<stop offset="1"/>
</linearGradient>
<linearGradient id="paint16_linear_74_194" x1="528.5" y1="642.5" x2="611" y2="584.5" gradientUnits="userSpaceOnUse">
<stop stop-color="#A2A2A2"/>
<stop offset="0.0474029" stop-color="#A3A3A3"/>
<stop offset="0.0891397"/>
<stop offset="0.171286" stop-color="#F8F5F5"/>
<stop offset="0.238496" stop-color="#C3C3C3"/>
<stop offset="0.283871" stop-color="#E0E0E0"/>
<stop offset="0.376369" stop-color="#E3E3E3"/>
<stop offset="0.431954" stop-color="#D5D5D5"/>
<stop offset="0.501392" stop-color="#EDEAEA"/>
<stop offset="0.625946" stop-color="#F4EEEE"/>
<stop offset="0.726369" stop-color="#D8D8D8"/>
<stop offset="1"/>
</linearGradient>
<linearGradient id="paint17_linear_74_194" x1="528.5" y1="642.5" x2="611" y2="584.5" gradientUnits="userSpaceOnUse">
<stop stop-color="#A2A2A2"/>
<stop offset="0.0474029" stop-color="#A3A3A3"/>
<stop offset="0.0891397"/>
<stop offset="0.171286" stop-color="#F8F5F5"/>
<stop offset="0.238496" stop-color="#C3C3C3"/>
<stop offset="0.283871" stop-color="#E0E0E0"/>
<stop offset="0.376369" stop-color="#E3E3E3"/>
<stop offset="0.431954" stop-color="#D5D5D5"/>
<stop offset="0.501392" stop-color="#EDEAEA"/>
<stop offset="0.625946" stop-color="#F4EEEE"/>
<stop offset="0.726369" stop-color="#D8D8D8"/>
<stop offset="1"/>
</linearGradient>
<linearGradient id="paint18_linear_74_194" x1="678.933" y1="-790.092" x2="679.698" y2="1505.1" gradientUnits="userSpaceOnUse">
<stop stop-color="#60A5FA"/>
<stop offset="1" stop-color="#1D4ED8"/>
</linearGradient>
<clipPath id="clip0_74_194">
<rect width="1024" height="1024" rx="226" fill="white"/>
</clipPath>
<clipPath id="clip1_74_194">
<rect width="2936" height="1024" fill="white" transform="translate(-956)"/>
</clipPath>
</defs>
</svg>
